<?xml version="1.0" encoding="UTF-8" standalone="no"?>
<!DOCTYPE svg PUBLIC "-//W3C//DTD SVG 1.1//EN"
 "http://www.w3.org/Graphics/SVG/1.1/DTD/svg11.dtd">
<!-- Generated by graphviz version 14.1.5 (20260411.2331)
 -->
<!-- Title: albs_provenance Pages: 1 -->
<svg width="2499pt" height="246pt"
 viewBox="0.00 0.00 2499.00 246.00" xmlns="http://www.w3.org/2000/svg" xmlns:xlink="http://www.w3.org/1999/xlink">
<g id="graph0" class="graph" transform="scale(1 1) rotate(0) translate(4 242)">
<title>albs_provenance</title>
<polygon fill="white" stroke="none" points="-4,4 -4,-242 2495.41,-242 2495.41,4 -4,4"/>
<!-- build:albs&#45;task:188077 -->
<g id="node1" class="node">
<title>build:albs&#45;task:188077</title>
<path fill="#f3e5f5" stroke="black" d="M1647.12,-90C1647.12,-90 1490.85,-90 1490.85,-90 1484.85,-90 1478.85,-84 1478.85,-78 1478.85,-78 1478.85,-66 1478.85,-66 1478.85,-60 1484.85,-54 1490.85,-54 1490.85,-54 1647.12,-54 1647.12,-54 1653.12,-54 1659.12,-60 1659.12,-66 1659.12,-66 1659.12,-78 1659.12,-78 1659.12,-84 1653.12,-90 1647.12,-90"/>
<text xml:space="preserve" text-anchor="middle" x="1568.99" y="-68.12" font-family="Inter" font-size="10.00">build_task\nALBS task 188077 x86_64</text>
</g>
<!-- rpm:3237140:nginx&#45;core&#45;1.20.1&#45;16.el9_4.1.x86_64.rpm -->
<g id="node2" class="node">
<title>rpm:3237140:nginx&#45;core&#45;1.20.1&#45;16.el9_4.1.x86_64.rpm</title>
<path fill="#e0f7fa" stroke="black" d="M1966.14,-171C1966.14,-171 1745.37,-171 1745.37,-171 1739.37,-171 1733.37,-165 1733.37,-159 1733.37,-159 1733.37,-147 1733.37,-147 1733.37,-141 1739.37,-135 1745.37,-135 1745.37,-135 1966.14,-135 1966.14,-135 1972.14,-135 1978.14,-141 1978.14,-147 1978.14,-147 1978.14,-159 1978.14,-159 1978.14,-165 1972.14,-171 1966.14,-171"/>
<text xml:space="preserve" text-anchor="middle" x="1855.76" y="-149.12" font-family="Inter" font-size="10.00">binary_rpm\nnginx&#45;core&#45;1.20.1&#45;16.el9_4.1.x86_64.rpm</text>
</g>
<!-- build:albs&#45;task:188077&#45;&gt;rpm:3237140:nginx&#45;core&#45;1.20.1&#45;16.el9_4.1.x86_64.rpm -->
<g id="edge10" class="edge">
<title>build:albs&#45;task:188077&#45;&gt;rpm:3237140:nginx&#45;core&#45;1.20.1&#45;16.el9_4.1.x86_64.rpm</title>
<path fill="none" stroke="#546e7a" d="M1634.96,-90.48C1678.78,-102.95 1736.67,-119.41 1782.03,-132.31"/>
<polygon fill="#546e7a" stroke="#546e7a" points="1781.2,-134.63 1788.6,-134.18 1782.54,-129.91 1781.2,-134.63"/>
<text xml:space="preserve" text-anchor="middle" x="1696.25" y="-113.7" font-family="Inter" font-size="9.00">produces</text>
</g>
<!-- srpm:3237035:nginx&#45;1.20.1&#45;16.el9_4.1.src.rpm -->
<g id="node6" class="node">
<title>srpm:3237035:nginx&#45;1.20.1&#45;16.el9_4.1.src.rpm</title>
<path fill="#e0f7fa" stroke="black" d="M1933.14,-90C1933.14,-90 1778.37,-90 1778.37,-90 1772.37,-90 1766.37,-84 1766.37,-78 1766.37,-78 1766.37,-66 1766.37,-66 1766.37,-60 1772.37,-54 1778.37,-54 1778.37,-54 1933.14,-54 1933.14,-54 1939.14,-54 1945.14,-60 1945.14,-66 1945.14,-66 1945.14,-78 1945.14,-78 1945.14,-84 1939.14,-90 1933.14,-90"/>
<text xml:space="preserve" text-anchor="middle" x="1855.76" y="-68.12" font-family="Inter" font-size="10.00">srpm\nnginx&#45;1.20.1&#45;16.el9_4.1.src.rpm</text>
</g>
<!-- build:albs&#45;task:188077&#45;&gt;srpm:3237035:nginx&#45;1.20.1&#45;16.el9_4.1.src.rpm -->
<g id="edge8" class="edge">
<title>build:albs&#45;task:188077&#45;&gt;srpm:3237035:nginx&#45;1.20.1&#45;16.el9_4.1.src.rpm</title>
<path fill="none" stroke="#546e7a" d="M1659.31,-72C1690.6,-72 1725.89,-72 1757.78,-72"/>
<polygon fill="#546e7a" stroke="#546e7a" points="1757.73,-74.45 1764.73,-72 1757.73,-69.55 1757.73,-74.45"/>
<text xml:space="preserve" text-anchor="middle" x="1696.25" y="-73.2" font-family="Inter" font-size="9.00">produces</text>
</g>
<!-- buildenv:AlmaLinux&#45;9:x86_64 -->
<g id="node13" class="node">
<title>buildenv:AlmaLinux&#45;9:x86_64</title>
<path fill="#f5f5f5" stroke="black" d="M1937.27,-36C1937.27,-36 1774.25,-36 1774.25,-36 1768.25,-36 1762.25,-30 1762.25,-24 1762.25,-24 1762.25,-12 1762.25,-12 1762.25,-6 1768.25,0 1774.25,0 1774.25,0 1937.27,0 1937.27,0 1943.27,0 1949.27,-6 1949.27,-12 1949.27,-12 1949.27,-24 1949.27,-24 1949.27,-30 1943.27,-36 1937.27,-36"/>
<text xml:space="preserve" text-anchor="middle" x="1855.76" y="-14.12" font-family="Inter" font-size="10.00">build_environment\nAlmaLinux&#45;9 x86_64</text>
</g>
<!-- build:albs&#45;task:188077&#45;&gt;buildenv:AlmaLinux&#45;9:x86_64 -->
<g id="edge7" class="edge">
<title>build:albs&#45;task:188077&#45;&gt;buildenv:AlmaLinux&#45;9:x86_64</title>
<path fill="none" stroke="#546e7a" d="M1659.31,-55.06C1689.25,-49.38 1722.85,-43.01 1753.64,-37.17"/>
<polygon fill="#546e7a" stroke="#546e7a" points="1753.91,-39.62 1760.33,-35.91 1753,-34.8 1753.91,-39.62"/>
<text xml:space="preserve" text-anchor="middle" x="1696.25" y="-52.62" font-family="Inter" font-size="9.00">built_in</text>
</g>
<!-- repo&#45;release:ALBS release 7396 -->
<g id="node3" class="node">
<title>repo&#45;release:ALBS release 7396</title>
<path fill="#e8eaf6" stroke="black" d="M2367.66,-238C2367.66,-238 2208.39,-238 2208.39,-238 2202.39,-238 2196.39,-232 2196.39,-226 2196.39,-226 2196.39,-214 2196.39,-214 2196.39,-208 2202.39,-202 2208.39,-202 2208.39,-202 2367.66,-202 2367.66,-202 2373.66,-202 2379.66,-208 2379.66,-214 2379.66,-214 2379.66,-226 2379.66,-226 2379.66,-232 2373.66,-238 2367.66,-238"/>
<text xml:space="preserve" text-anchor="middle" x="2288.03" y="-216.12" font-family="Inter" font-size="10.00">repository_release\nALBS release 7396</text>
</g>
<!-- rpm:3237140:nginx&#45;core&#45;1.20.1&#45;16.el9_4.1.x86_64.rpm&#45;&gt;repo&#45;release:ALBS release 7396 -->
<g id="edge12" class="edge">
<title>rpm:3237140:nginx&#45;core&#45;1.20.1&#45;16.el9_4.1.x86_64.rpm&#45;&gt;repo&#45;release:ALBS release 7396</title>
<path fill="none" stroke="#546e7a" d="M1956.73,-171.46C1996.48,-178.57 2042.66,-186.52 2084.64,-193 2118.15,-198.17 2154.87,-203.25 2187.72,-207.58"/>
<polygon fill="#546e7a" stroke="#546e7a" points="2187.23,-209.99 2194.49,-208.47 2187.86,-205.13 2187.23,-209.99"/>
<text xml:space="preserve" text-anchor="middle" x="2031.39" y="-191.29" font-family="Inter" font-size="9.00">released_to</text>
</g>
<!-- sig:albs:11754 -->
<g id="node4" class="node">
<title>sig:albs:11754</title>
<path fill="#fff3e0" stroke="black" d="M2354.54,-184C2354.54,-184 2221.52,-184 2221.52,-184 2215.52,-184 2209.52,-178 2209.52,-172 2209.52,-172 2209.52,-160 2209.52,-160 2209.52,-154 2215.52,-148 2221.52,-148 2221.52,-148 2354.54,-148 2354.54,-148 2360.54,-148 2366.54,-154 2366.54,-160 2366.54,-160 2366.54,-172 2366.54,-172 2366.54,-178 2360.54,-184 2354.54,-184"/>
<text xml:space="preserve" text-anchor="middle" x="2288.03" y="-162.12" font-family="Inter" font-size="10.00">signature\nALBS sign task 11754</text>
</g>
<!-- rpm:3237140:nginx&#45;core&#45;1.20.1&#45;16.el9_4.1.x86_64.rpm&#45;&gt;sig:albs:11754 -->
<g id="edge13" class="edge">
<title>rpm:3237140:nginx&#45;core&#45;1.20.1&#45;16.el9_4.1.x86_64.rpm&#45;&gt;sig:albs:11754</title>
<path fill="none" stroke="#546e7a" d="M1978.61,-156.68C2049.48,-158.82 2137.09,-161.47 2200.8,-163.39"/>
<polygon fill="#546e7a" stroke="#546e7a" points="2200.65,-165.84 2207.72,-163.6 2200.8,-160.94 2200.65,-165.84"/>
<text xml:space="preserve" text-anchor="middle" x="2031.39" y="-160.31" font-family="Inter" font-size="9.00">signed_as</text>
</g>
<!-- cas:artifact:e81b769bd3647a3310fff0d364f19980d1fe39f01a444feffdfed9430a68f4c3 -->
<g id="node7" class="node">
<title>cas:artifact:e81b769bd3647a3310fff0d364f19980d1fe39f01a444feffdfed9430a68f4c3</title>
<path fill="#fff8e1" stroke="black" d="M2474.54,-130C2474.54,-130 2101.52,-130 2101.52,-130 2095.52,-130 2089.52,-124 2089.52,-118 2089.52,-118 2089.52,-106 2089.52,-106 2089.52,-100 2095.52,-94 2101.52,-94 2101.52,-94 2474.54,-94 2474.54,-94 2480.54,-94 2486.54,-100 2486.54,-106 2486.54,-106 2486.54,-118 2486.54,-118 2486.54,-124 2480.54,-130 2474.54,-130"/>
<text xml:space="preserve" text-anchor="middle" x="2288.03" y="-108.12" font-family="Inter" font-size="10.00">cas_attestation\ne81b769bd3647a3310fff0d364f19980d1fe39f01a444feffdfed9430a68f4c3</text>
</g>
<!-- rpm:3237140:nginx&#45;core&#45;1.20.1&#45;16.el9_4.1.x86_64.rpm&#45;&gt;cas:artifact:e81b769bd3647a3310fff0d364f19980d1fe39f01a444feffdfed9430a68f4c3 -->
<g id="edge11" class="edge">
<title>rpm:3237140:nginx&#45;core&#45;1.20.1&#45;16.el9_4.1.x86_64.rpm&#45;&gt;cas:artifact:e81b769bd3647a3310fff0d364f19980d1fe39f01a444feffdfed9430a68f4c3</title>
<path fill="none" stroke="#546e7a" d="M1978.61,-141.39C2011.76,-138.23 2048.58,-134.72 2084.9,-131.26"/>
<polygon fill="#546e7a" stroke="#546e7a" points="2084.88,-133.72 2091.62,-130.62 2084.42,-128.85 2084.88,-133.72"/>
<text xml:space="preserve" text-anchor="middle" x="2031.39" y="-139.77" font-family="Inter" font-size="9.00">authenticated_by</text>
</g>
<!-- build:albs:17812 -->
<g id="node5" class="node">
<title>build:albs:17812</title>
<path fill="#f3e5f5" stroke="black" d="M1376.85,-63C1376.85,-63 1258.83,-63 1258.83,-63 1252.83,-63 1246.83,-57 1246.83,-51 1246.83,-51 1246.83,-39 1246.83,-39 1246.83,-33 1252.83,-27 1258.83,-27 1258.83,-27 1376.85,-27 1376.85,-27 1382.85,-27 1388.85,-33 1388.85,-39 1388.85,-39 1388.85,-51 1388.85,-51 1388.85,-57 1382.85,-63 1376.85,-63"/>
<text xml:space="preserve" text-anchor="middle" x="1317.84" y="-41.12" font-family="Inter" font-size="10.00">build_task\nALBS build 17812</text>
</g>
<!-- build:albs:17812&#45;&gt;build:albs&#45;task:188077 -->
<g id="edge6" class="edge">
<title>build:albs:17812&#45;&gt;build:albs&#45;task:188077</title>
<path fill="none" stroke="#546e7a" d="M1389.24,-52.63C1414.4,-55.36 1443.24,-58.48 1470.29,-61.41"/>
<polygon fill="#546e7a" stroke="#546e7a" points="1469.9,-63.83 1477.12,-62.15 1470.43,-58.96 1469.9,-63.83"/>
<text xml:space="preserve" text-anchor="middle" x="1433.85" y="-61.32" font-family="Inter" font-size="9.00">derived_from</text>
</g>
<!-- cas:artifact:f8e2a823ffc9fe9311dac3e3a50c349c3a0689b951656fefa955cd4405ddf510 -->
<g id="node12" class="node">
<title>cas:artifact:f8e2a823ffc9fe9311dac3e3a50c349c3a0689b951656fefa955cd4405ddf510</title>
<path fill="#fff8e1" stroke="black" d="M2479.41,-76C2479.41,-76 2096.64,-76 2096.64,-76 2090.64,-76 2084.64,-70 2084.64,-64 2084.64,-64 2084.64,-52 2084.64,-52 2084.64,-46 2090.64,-40 2096.64,-40 2096.64,-40 2479.41,-40 2479.41,-40 2485.41,-40 2491.41,-46 2491.41,-52 2491.41,-52 2491.41,-64 2491.41,-64 2491.41,-70 2485.41,-76 2479.41,-76"/>
<text xml:space="preserve" text-anchor="middle" x="2288.03" y="-54.12" font-family="Inter" font-size="10.00">cas_attestation\nf8e2a823ffc9fe9311dac3e3a50c349c3a0689b951656fefa955cd4405ddf510</text>
</g>
<!-- srpm:3237035:nginx&#45;1.20.1&#45;16.el9_4.1.src.rpm&#45;&gt;cas:artifact:f8e2a823ffc9fe9311dac3e3a50c349c3a0689b951656fefa955cd4405ddf510 -->
<g id="edge9" class="edge">
<title>srpm:3237035:nginx&#45;1.20.1&#45;16.el9_4.1.src.rpm&#45;&gt;cas:artifact:f8e2a823ffc9fe9311dac3e3a50c349c3a0689b951656fefa955cd4405ddf510</title>
<path fill="none" stroke="#546e7a" d="M1945.39,-69.12C1983.56,-67.87 2029.98,-66.36 2076.14,-64.86"/>
<polygon fill="#546e7a" stroke="#546e7a" points="2076.02,-67.32 2082.94,-64.64 2075.86,-62.42 2076.02,-67.32"/>
<text xml:space="preserve" text-anchor="middle" x="2031.39" y="-68.27" font-family="Inter" font-size="9.00">authenticated_by</text>
</g>
<!-- cas:source:nginx:911945c71710c83cf6f760447c32d8d6cae737dc -->
<g id="node8" class="node">
<title>cas:source:nginx:911945c71710c83cf6f760447c32d8d6cae737dc</title>
<path fill="#fff8e1" stroke="black" d="M1166.58,-90C1166.58,-90 898.56,-90 898.56,-90 892.56,-90 886.56,-84 886.56,-78 886.56,-78 886.56,-66 886.56,-66 886.56,-60 892.56,-54 898.56,-54 898.56,-54 1166.58,-54 1166.58,-54 1172.58,-54 1178.58,-60 1178.58,-66 1178.58,-66 1178.58,-78 1178.58,-78 1178.58,-84 1172.58,-90 1166.58,-90"/>
<text xml:space="preserve" text-anchor="middle" x="1032.57" y="-68.12" font-family="Inter" font-size="10.00">cas_attestation\n911945c71710c83cf6f760447c32d8d6cae737dc</text>
</g>
<!-- cas:source:nginx:911945c71710c83cf6f760447c32d8d6cae737dc&#45;&gt;build:albs&#45;task:188077 -->
<g id="edge5" class="edge">
<title>cas:source:nginx:911945c71710c83cf6f760447c32d8d6cae737dc&#45;&gt;build:albs&#45;task:188077</title>
<path fill="none" stroke="#546e7a" d="M1178.93,-73.69C1261.58,-74.4 1367.01,-74.88 1460.85,-74 1463.91,-73.97 1467.03,-73.94 1470.17,-73.9"/>
<polygon fill="#546e7a" stroke="#546e7a" points="1470.06,-76.35 1477.03,-73.81 1470,-71.45 1470.06,-76.35"/>
<text xml:space="preserve" text-anchor="middle" x="1317.84" y="-75.67" font-family="Inter" font-size="9.00">built_by</text>
</g>
<!-- cas:source:nginx:911945c71710c83cf6f760447c32d8d6cae737dc&#45;&gt;build:albs:17812 -->
<g id="edge4" class="edge">
<title>cas:source:nginx:911945c71710c83cf6f760447c32d8d6cae737dc&#45;&gt;build:albs:17812</title>
<path fill="none" stroke="#546e7a" d="M1178.94,-58.14C1199.32,-56.2 1219.59,-54.27 1238.08,-52.51"/>
<polygon fill="#546e7a" stroke="#546e7a" points="1238.2,-54.96 1244.93,-51.85 1237.73,-50.08 1238.2,-54.96"/>
<text xml:space="preserve" text-anchor="middle" x="1212.71" y="-57.28" font-family="Inter" font-size="9.00">built_by</text>
</g>
<!-- commit:nginx:911945c71710c83cf6f760447c32d8d6cae737dc -->
<g id="node9" class="node">
<title>commit:nginx:911945c71710c83cf6f760447c32d8d6cae737dc</title>
<path fill="#e3f2fd" stroke="black" d="M768.06,-90C768.06,-90 518.79,-90 518.79,-90 512.79,-90 506.79,-84 506.79,-78 506.79,-78 506.79,-66 506.79,-66 506.79,-60 512.79,-54 518.79,-54 518.79,-54 768.06,-54 768.06,-54 774.06,-54 780.06,-60 780.06,-66 780.06,-66 780.06,-78 780.06,-78 780.06,-84 774.06,-90 768.06,-90"/>
<text xml:space="preserve" text-anchor="middle" x="643.43" y="-68.12" font-family="Inter" font-size="10.00">git_commit\n911945c71710c83cf6f760447c32d8d6cae737dc</text>
</g>
<!-- commit:nginx:911945c71710c83cf6f760447c32d8d6cae737dc&#45;&gt;cas:source:nginx:911945c71710c83cf6f760447c32d8d6cae737dc -->
<g id="edge3" class="edge">
<title>commit:nginx:911945c71710c83cf6f760447c32d8d6cae737dc&#45;&gt;cas:source:nginx:911945c71710c83cf6f760447c32d8d6cae737dc</title>
<path fill="none" stroke="#546e7a" d="M780.37,-72C811.91,-72 845.69,-72 877.92,-72"/>
<polygon fill="#546e7a" stroke="#546e7a" points="877.57,-74.45 884.57,-72 877.57,-69.55 877.57,-74.45"/>
<text xml:space="preserve" text-anchor="middle" x="833.31" y="-73.2" font-family="Inter" font-size="9.00">authenticated_by</text>
</g>
<!-- git:https://git.almalinux.org/rpms/nginx.git -->
<g id="node10" class="node">
<title>git:https://git.almalinux.org/rpms/nginx.git</title>
<path fill="#e3f2fd" stroke="black" d="M421.29,-90C421.29,-90 200.52,-90 200.52,-90 194.52,-90 188.52,-84 188.52,-78 188.52,-78 188.52,-66 188.52,-66 188.52,-60 194.52,-54 200.52,-54 200.52,-54 421.29,-54 421.29,-54 427.29,-54 433.29,-60 433.29,-66 433.29,-66 433.29,-78 433.29,-78 433.29,-84 427.29,-90 421.29,-90"/>
<text xml:space="preserve" text-anchor="middle" x="310.91" y="-68.12" font-family="Inter" font-size="10.00">git_repository\nhttps://git.almalinux.org/rpms/nginx.git</text>
</g>
<!-- git:https://git.almalinux.org/rpms/nginx.git&#45;&gt;commit:nginx:911945c71710c83cf6f760447c32d8d6cae737dc -->
<g id="edge2" class="edge">
<title>git:https://git.almalinux.org/rpms/nginx.git&#45;&gt;commit:nginx:911945c71710c83cf6f760447c32d8d6cae737dc</title>
<path fill="none" stroke="#546e7a" d="M433.57,-72C454.63,-72 476.7,-72 498.28,-72"/>
<polygon fill="#546e7a" stroke="#546e7a" points="498.01,-74.45 505.01,-72 498.01,-69.55 498.01,-74.45"/>
<text xml:space="preserve" text-anchor="middle" x="470.04" y="-73.2" font-family="Inter" font-size="9.00">points_to</text>
</g>
<!-- src:nginx -->
<g id="node11" class="node">
<title>src:nginx</title>
<path fill="#e8f5e9" stroke="black" d="M102.27,-90C102.27,-90 12,-90 12,-90 6,-90 0,-84 0,-78 0,-78 0,-66 0,-66 0,-60 6,-54 12,-54 12,-54 102.27,-54 102.27,-54 108.27,-54 114.27,-60 114.27,-66 114.27,-66 114.27,-78 114.27,-78 114.27,-84 108.27,-90 102.27,-90"/>
<text xml:space="preserve" text-anchor="middle" x="57.14" y="-68.12" font-family="Inter" font-size="10.00">source_package\nnginx</text>
</g>
<!-- src:nginx&#45;&gt;git:https://git.almalinux.org/rpms/nginx.git -->
<g id="edge1" class="edge">
<title>src:nginx&#45;&gt;git:https://git.almalinux.org/rpms/nginx.git</title>
<path fill="none" stroke="#546e7a" d="M114.64,-72C134.13,-72 156.86,-72 179.78,-72"/>
<polygon fill="#546e7a" stroke="#546e7a" points="179.71,-74.45 186.71,-72 179.71,-69.55 179.71,-74.45"/>
<text xml:space="preserve" text-anchor="middle" x="151.4" y="-73.2" font-family="Inter" font-size="9.00">stored_in</text>
</g>
</g>
</svg>
