<?xml version="1.0" encoding="UTF-8" standalone="no"?>
<!DOCTYPE svg PUBLIC "-//W3C//DTD SVG 1.1//EN"
 "http://www.w3.org/Graphics/SVG/1.1/DTD/svg11.dtd">
<!-- Generated by graphviz version 14.1.5 (20260411.2331)
 -->
<!-- Title: albs_provenance Pages: 1 -->
<svg width="2499pt" height="206pt"
 viewBox="0.00 0.00 2499.00 206.00" xmlns="http://www.w3.org/2000/svg" xmlns:xlink="http://www.w3.org/1999/xlink">
<g id="graph0" class="graph" transform="scale(1 1) rotate(0) translate(4 202)">
<title>albs_provenance</title>
<polygon fill="white" stroke="none" points="-4,4 -4,-202 2495.41,-202 2495.41,4 -4,4"/>
<!-- sig:albs:11754 -->
<g id="node1" class="node">
<title>sig:albs:11754</title>
<path fill="#fff3e0" stroke="black" d="M2354.54,-144C2354.54,-144 2221.52,-144 2221.52,-144 2215.52,-144 2209.52,-138 2209.52,-132 2209.52,-132 2209.52,-120 2209.52,-120 2209.52,-114 2215.52,-108 2221.52,-108 2221.52,-108 2354.54,-108 2354.54,-108 2360.54,-108 2366.54,-114 2366.54,-120 2366.54,-120 2366.54,-132 2366.54,-132 2366.54,-138 2360.54,-144 2354.54,-144"/>
<text xml:space="preserve" text-anchor="middle" x="2288.03" y="-122.12" font-family="Inter" font-size="10.00">signature\nALBS sign task 11754</text>
</g>
<!-- cas:artifact:e81b769bd3647a3310fff0d364f19980d1fe39f01a444feffdfed9430a68f4c3 -->
<g id="node2" class="node">
<title>cas:artifact:e81b769bd3647a3310fff0d364f19980d1fe39f01a444feffdfed9430a68f4c3</title>
<path fill="#fff8e1" stroke="black" d="M2474.54,-90C2474.54,-90 2101.52,-90 2101.52,-90 2095.52,-90 2089.52,-84 2089.52,-78 2089.52,-78 2089.52,-66 2089.52,-66 2089.52,-60 2095.52,-54 2101.52,-54 2101.52,-54 2474.54,-54 2474.54,-54 2480.54,-54 2486.54,-60 2486.54,-66 2486.54,-66 2486.54,-78 2486.54,-78 2486.54,-84 2480.54,-90 2474.54,-90"/>
<text xml:space="preserve" text-anchor="middle" x="2288.03" y="-68.12" font-family="Inter" font-size="10.00">cas_attestation\ne81b769bd3647a3310fff0d364f19980d1fe39f01a444feffdfed9430a68f4c3</text>
</g>
<!-- src:nginx -->
<g id="node3" class="node">
<title>src:nginx</title>
<path fill="#e8f5e9" stroke="black" d="M102.27,-117C102.27,-117 12,-117 12,-117 6,-117 0,-111 0,-105 0,-105 0,-93 0,-93 0,-87 6,-81 12,-81 12,-81 102.27,-81 102.27,-81 108.27,-81 114.27,-87 114.27,-93 114.27,-93 114.27,-105 114.27,-105 114.27,-111 108.27,-117 102.27,-117"/>
<text xml:space="preserve" text-anchor="middle" x="57.14" y="-95.12" font-family="Inter" font-size="10.00">source_package\nnginx</text>
</g>
<!-- git:https://git.almalinux.org/rpms/nginx.git -->
<g id="node7" class="node">
<title>git:https://git.almalinux.org/rpms/nginx.git</title>
<path fill="#e3f2fd" stroke="black" d="M421.29,-117C421.29,-117 200.52,-117 200.52,-117 194.52,-117 188.52,-111 188.52,-105 188.52,-105 188.52,-93 188.52,-93 188.52,-87 194.52,-81 200.52,-81 200.52,-81 421.29,-81 421.29,-81 427.29,-81 433.29,-87 433.29,-93 433.29,-93 433.29,-105 433.29,-105 433.29,-111 427.29,-117 421.29,-117"/>
<text xml:space="preserve" text-anchor="middle" x="310.91" y="-95.12" font-family="Inter" font-size="10.00">git_repository\nhttps://git.almalinux.org/rpms/nginx.git</text>
</g>
<!-- src:nginx&#45;&gt;git:https://git.almalinux.org/rpms/nginx.git -->
<g id="edge1" class="edge">
<title>src:nginx&#45;&gt;git:https://git.almalinux.org/rpms/nginx.git</title>
<path fill="none" stroke="#546e7a" d="M114.64,-99C134.13,-99 156.86,-99 179.78,-99"/>
<polygon fill="#546e7a" stroke="#546e7a" points="179.71,-101.45 186.71,-99 179.71,-96.55 179.71,-101.45"/>
<text xml:space="preserve" text-anchor="middle" x="151.4" y="-100.2" font-family="Inter" font-size="9.00">stored_in</text>
</g>
<!-- build:albs&#45;task:188077 -->
<g id="node4" class="node">
<title>build:albs&#45;task:188077</title>
<path fill="#f3e5f5" stroke="black" d="M1647.12,-117C1647.12,-117 1490.85,-117 1490.85,-117 1484.85,-117 1478.85,-111 1478.85,-105 1478.85,-105 1478.85,-93 1478.85,-93 1478.85,-87 1484.85,-81 1490.85,-81 1490.85,-81 1647.12,-81 1647.12,-81 1653.12,-81 1659.12,-87 1659.12,-93 1659.12,-93 1659.12,-105 1659.12,-105 1659.12,-111 1653.12,-117 1647.12,-117"/>
<text xml:space="preserve" text-anchor="middle" x="1568.99" y="-95.12" font-family="Inter" font-size="10.00">build_task\nALBS task 188077 x86_64</text>
</g>
<!-- srpm:3237035:nginx&#45;1.20.1&#45;16.el9_4.1.src.rpm -->
<g id="node9" class="node">
<title>srpm:3237035:nginx&#45;1.20.1&#45;16.el9_4.1.src.rpm</title>
<path fill="#e0f7fa" stroke="black" d="M1933.14,-185C1933.14,-185 1778.37,-185 1778.37,-185 1772.37,-185 1766.37,-179 1766.37,-173 1766.37,-173 1766.37,-161 1766.37,-161 1766.37,-155 1772.37,-149 1778.37,-149 1778.37,-149 1933.14,-149 1933.14,-149 1939.14,-149 1945.14,-155 1945.14,-161 1945.14,-161 1945.14,-173 1945.14,-173 1945.14,-179 1939.14,-185 1933.14,-185"/>
<text xml:space="preserve" text-anchor="middle" x="1855.76" y="-163.12" font-family="Inter" font-size="10.00">srpm\nnginx&#45;1.20.1&#45;16.el9_4.1.src.rpm</text>
</g>
<!-- build:albs&#45;task:188077&#45;&gt;srpm:3237035:nginx&#45;1.20.1&#45;16.el9_4.1.src.rpm -->
<g id="edge8" class="edge">
<title>build:albs&#45;task:188077&#45;&gt;srpm:3237035:nginx&#45;1.20.1&#45;16.el9_4.1.src.rpm</title>
<path fill="none" stroke="#546e7a" d="M1647.42,-117.49C1685.1,-126.49 1730.49,-137.33 1769.18,-146.57"/>
<polygon fill="#546e7a" stroke="#546e7a" points="1768.48,-148.92 1775.86,-148.16 1769.62,-144.15 1768.48,-148.92"/>
<text xml:space="preserve" text-anchor="middle" x="1696.25" y="-134.2" font-family="Inter" font-size="9.00">produces</text>
</g>
<!-- rpm:3237140:nginx&#45;core&#45;1.20.1&#45;16.el9_4.1.x86_64.rpm -->
<g id="node10" class="node">
<title>rpm:3237140:nginx&#45;core&#45;1.20.1&#45;16.el9_4.1.x86_64.rpm</title>
<path fill="#e0f7fa" stroke="black" d="M1966.14,-117C1966.14,-117 1745.37,-117 1745.37,-117 1739.37,-117 1733.37,-111 1733.37,-105 1733.37,-105 1733.37,-93 1733.37,-93 1733.37,-87 1739.37,-81 1745.37,-81 1745.37,-81 1966.14,-81 1966.14,-81 1972.14,-81 1978.14,-87 1978.14,-93 1978.14,-93 1978.14,-105 1978.14,-105 1978.14,-111 1972.14,-117 1966.14,-117"/>
<text xml:space="preserve" text-anchor="middle" x="1855.76" y="-95.12" font-family="Inter" font-size="10.00">binary_rpm\nnginx&#45;core&#45;1.20.1&#45;16.el9_4.1.x86_64.rpm</text>
</g>
<!-- build:albs&#45;task:188077&#45;&gt;rpm:3237140:nginx&#45;core&#45;1.20.1&#45;16.el9_4.1.x86_64.rpm -->
<g id="edge10" class="edge">
<title>build:albs&#45;task:188077&#45;&gt;rpm:3237140:nginx&#45;core&#45;1.20.1&#45;16.el9_4.1.x86_64.rpm</title>
<path fill="none" stroke="#546e7a" d="M1659.31,-99C1679.99,-99 1702.42,-99 1724.45,-99"/>
<polygon fill="#546e7a" stroke="#546e7a" points="1724.36,-101.45 1731.36,-99 1724.36,-96.55 1724.36,-101.45"/>
<text xml:space="preserve" text-anchor="middle" x="1696.25" y="-100.2" font-family="Inter" font-size="9.00">produces</text>
</g>
<!-- buildenv:AlmaLinux&#45;9:x86_64 -->
<g id="node11" class="node">
<title>buildenv:AlmaLinux&#45;9:x86_64</title>
<path fill="#f5f5f5" stroke="black" d="M1937.27,-63C1937.27,-63 1774.25,-63 1774.25,-63 1768.25,-63 1762.25,-57 1762.25,-51 1762.25,-51 1762.25,-39 1762.25,-39 1762.25,-33 1768.25,-27 1774.25,-27 1774.25,-27 1937.27,-27 1937.27,-27 1943.27,-27 1949.27,-33 1949.27,-39 1949.27,-39 1949.27,-51 1949.27,-51 1949.27,-57 1943.27,-63 1937.27,-63"/>
<text xml:space="preserve" text-anchor="middle" x="1855.76" y="-41.12" font-family="Inter" font-size="10.00">build_environment\nAlmaLinux&#45;9 x86_64</text>
</g>
<!-- build:albs&#45;task:188077&#45;&gt;buildenv:AlmaLinux&#45;9:x86_64 -->
<g id="edge7" class="edge">
<title>build:albs&#45;task:188077&#45;&gt;buildenv:AlmaLinux&#45;9:x86_64</title>
<path fill="none" stroke="#546e7a" d="M1659.31,-82.06C1689.25,-76.38 1722.85,-70.01 1753.64,-64.17"/>
<polygon fill="#546e7a" stroke="#546e7a" points="1753.91,-66.62 1760.33,-62.91 1753,-61.8 1753.91,-66.62"/>
<text xml:space="preserve" text-anchor="middle" x="1696.25" y="-79.62" font-family="Inter" font-size="9.00">built_in</text>
</g>
<!-- commit:nginx:911945c71710c83cf6f760447c32d8d6cae737dc -->
<g id="node5" class="node">
<title>commit:nginx:911945c71710c83cf6f760447c32d8d6cae737dc</title>
<path fill="#e3f2fd" stroke="black" d="M768.06,-117C768.06,-117 518.79,-117 518.79,-117 512.79,-117 506.79,-111 506.79,-105 506.79,-105 506.79,-93 506.79,-93 506.79,-87 512.79,-81 518.79,-81 518.79,-81 768.06,-81 768.06,-81 774.06,-81 780.06,-87 780.06,-93 780.06,-93 780.06,-105 780.06,-105 780.06,-111 774.06,-117 768.06,-117"/>
<text xml:space="preserve" text-anchor="middle" x="643.43" y="-95.12" font-family="Inter" font-size="10.00">git_commit\n911945c71710c83cf6f760447c32d8d6cae737dc</text>
</g>
<!-- cas:source:nginx:911945c71710c83cf6f760447c32d8d6cae737dc -->
<g id="node12" class="node">
<title>cas:source:nginx:911945c71710c83cf6f760447c32d8d6cae737dc</title>
<path fill="#fff8e1" stroke="black" d="M1166.58,-117C1166.58,-117 898.56,-117 898.56,-117 892.56,-117 886.56,-111 886.56,-105 886.56,-105 886.56,-93 886.56,-93 886.56,-87 892.56,-81 898.56,-81 898.56,-81 1166.58,-81 1166.58,-81 1172.58,-81 1178.58,-87 1178.58,-93 1178.58,-93 1178.58,-105 1178.58,-105 1178.58,-111 1172.58,-117 1166.58,-117"/>
<text xml:space="preserve" text-anchor="middle" x="1032.57" y="-95.12" font-family="Inter" font-size="10.00">cas_attestation\n911945c71710c83cf6f760447c32d8d6cae737dc</text>
</g>
<!-- commit:nginx:911945c71710c83cf6f760447c32d8d6cae737dc&#45;&gt;cas:source:nginx:911945c71710c83cf6f760447c32d8d6cae737dc -->
<g id="edge3" class="edge">
<title>commit:nginx:911945c71710c83cf6f760447c32d8d6cae737dc&#45;&gt;cas:source:nginx:911945c71710c83cf6f760447c32d8d6cae737dc</title>
<path fill="none" stroke="#546e7a" d="M780.37,-99C811.91,-99 845.69,-99 877.92,-99"/>
<polygon fill="#546e7a" stroke="#546e7a" points="877.57,-101.45 884.57,-99 877.57,-96.55 877.57,-101.45"/>
<text xml:space="preserve" text-anchor="middle" x="833.31" y="-100.2" font-family="Inter" font-size="9.00">authenticated_by</text>
</g>
<!-- cas:artifact:f8e2a823ffc9fe9311dac3e3a50c349c3a0689b951656fefa955cd4405ddf510 -->
<g id="node6" class="node">
<title>cas:artifact:f8e2a823ffc9fe9311dac3e3a50c349c3a0689b951656fefa955cd4405ddf510</title>
<path fill="#fff8e1" stroke="black" d="M2479.41,-198C2479.41,-198 2096.64,-198 2096.64,-198 2090.64,-198 2084.64,-192 2084.64,-186 2084.64,-186 2084.64,-174 2084.64,-174 2084.64,-168 2090.64,-162 2096.64,-162 2096.64,-162 2479.41,-162 2479.41,-162 2485.41,-162 2491.41,-168 2491.41,-174 2491.41,-174 2491.41,-186 2491.41,-186 2491.41,-192 2485.41,-198 2479.41,-198"/>
<text xml:space="preserve" text-anchor="middle" x="2288.03" y="-176.12" font-family="Inter" font-size="10.00">cas_attestation\nf8e2a823ffc9fe9311dac3e3a50c349c3a0689b951656fefa955cd4405ddf510</text>
</g>
<!-- git:https://git.almalinux.org/rpms/nginx.git&#45;&gt;commit:nginx:911945c71710c83cf6f760447c32d8d6cae737dc -->
<g id="edge2" class="edge">
<title>git:https://git.almalinux.org/rpms/nginx.git&#45;&gt;commit:nginx:911945c71710c83cf6f760447c32d8d6cae737dc</title>
<path fill="none" stroke="#546e7a" d="M433.57,-99C454.63,-99 476.7,-99 498.28,-99"/>
<polygon fill="#546e7a" stroke="#546e7a" points="498.01,-101.45 505.01,-99 498.01,-96.55 498.01,-101.45"/>
<text xml:space="preserve" text-anchor="middle" x="470.04" y="-100.2" font-family="Inter" font-size="9.00">points_to</text>
</g>
<!-- build:albs:17812 -->
<g id="node8" class="node">
<title>build:albs:17812</title>
<path fill="#f3e5f5" stroke="black" d="M1376.85,-90C1376.85,-90 1258.83,-90 1258.83,-90 1252.83,-90 1246.83,-84 1246.83,-78 1246.83,-78 1246.83,-66 1246.83,-66 1246.83,-60 1252.83,-54 1258.83,-54 1258.83,-54 1376.85,-54 1376.85,-54 1382.85,-54 1388.85,-60 1388.85,-66 1388.85,-66 1388.85,-78 1388.85,-78 1388.85,-84 1382.85,-90 1376.85,-90"/>
<text xml:space="preserve" text-anchor="middle" x="1317.84" y="-68.12" font-family="Inter" font-size="10.00">build_task\nALBS build 17812</text>
</g>
<!-- build:albs:17812&#45;&gt;build:albs&#45;task:188077 -->
<g id="edge6" class="edge">
<title>build:albs:17812&#45;&gt;build:albs&#45;task:188077</title>
<path fill="none" stroke="#546e7a" d="M1389.24,-79.63C1414.4,-82.36 1443.24,-85.48 1470.29,-88.41"/>
<polygon fill="#546e7a" stroke="#546e7a" points="1469.9,-90.83 1477.12,-89.15 1470.43,-85.96 1469.9,-90.83"/>
<text xml:space="preserve" text-anchor="middle" x="1433.85" y="-88.32" font-family="Inter" font-size="9.00">derived_from</text>
</g>
<!-- srpm:3237035:nginx&#45;1.20.1&#45;16.el9_4.1.src.rpm&#45;&gt;cas:artifact:f8e2a823ffc9fe9311dac3e3a50c349c3a0689b951656fefa955cd4405ddf510 -->
<g id="edge9" class="edge">
<title>srpm:3237035:nginx&#45;1.20.1&#45;16.el9_4.1.src.rpm&#45;&gt;cas:artifact:f8e2a823ffc9fe9311dac3e3a50c349c3a0689b951656fefa955cd4405ddf510</title>
<path fill="none" stroke="#546e7a" d="M1945.39,-169.68C1983.56,-170.83 2029.98,-172.23 2076.14,-173.63"/>
<polygon fill="#546e7a" stroke="#546e7a" points="2075.86,-176.07 2082.94,-173.83 2076.01,-171.17 2075.86,-176.07"/>
<text xml:space="preserve" text-anchor="middle" x="2031.39" y="-174.31" font-family="Inter" font-size="9.00">authenticated_by</text>
</g>
<!-- rpm:3237140:nginx&#45;core&#45;1.20.1&#45;16.el9_4.1.x86_64.rpm&#45;&gt;sig:albs:11754 -->
<g id="edge13" class="edge">
<title>rpm:3237140:nginx&#45;core&#45;1.20.1&#45;16.el9_4.1.x86_64.rpm&#45;&gt;sig:albs:11754</title>
<path fill="none" stroke="#546e7a" d="M1978.61,-106.65C2049.48,-111.09 2137.09,-116.59 2200.8,-120.59"/>
<polygon fill="#546e7a" stroke="#546e7a" points="2200.59,-123.03 2207.73,-121.02 2200.89,-118.14 2200.59,-123.03"/>
<text xml:space="preserve" text-anchor="middle" x="2031.39" y="-112.89" font-family="Inter" font-size="9.00">signed_as</text>
</g>
<!-- rpm:3237140:nginx&#45;core&#45;1.20.1&#45;16.el9_4.1.x86_64.rpm&#45;&gt;cas:artifact:e81b769bd3647a3310fff0d364f19980d1fe39f01a444feffdfed9430a68f4c3 -->
<g id="edge11" class="edge">
<title>rpm:3237140:nginx&#45;core&#45;1.20.1&#45;16.el9_4.1.x86_64.rpm&#45;&gt;cas:artifact:e81b769bd3647a3310fff0d364f19980d1fe39f01a444feffdfed9430a68f4c3</title>
<path fill="none" stroke="#546e7a" d="M1978.61,-91.35C2010.48,-89.35 2045.72,-87.14 2080.66,-84.95"/>
<polygon fill="#546e7a" stroke="#546e7a" points="2080.71,-87.4 2087.54,-84.52 2080.4,-82.51 2080.71,-87.4"/>
<text xml:space="preserve" text-anchor="middle" x="2031.39" y="-90.7" font-family="Inter" font-size="9.00">authenticated_by</text>
</g>
<!-- repo&#45;release:ALBS release 7396 -->
<g id="node13" class="node">
<title>repo&#45;release:ALBS release 7396</title>
<path fill="#e8eaf6" stroke="black" d="M2367.66,-36C2367.66,-36 2208.39,-36 2208.39,-36 2202.39,-36 2196.39,-30 2196.39,-24 2196.39,-24 2196.39,-12 2196.39,-12 2196.39,-6 2202.39,0 2208.39,0 2208.39,0 2367.66,0 2367.66,0 2373.66,0 2379.66,-6 2379.66,-12 2379.66,-12 2379.66,-24 2379.66,-24 2379.66,-30 2373.66,-36 2367.66,-36"/>
<text xml:space="preserve" text-anchor="middle" x="2288.03" y="-14.12" font-family="Inter" font-size="10.00">repository_release\nALBS release 7396</text>
</g>
<!-- rpm:3237140:nginx&#45;core&#45;1.20.1&#45;16.el9_4.1.x86_64.rpm&#45;&gt;repo&#45;release:ALBS release 7396 -->
<g id="edge12" class="edge">
<title>rpm:3237140:nginx&#45;core&#45;1.20.1&#45;16.el9_4.1.x86_64.rpm&#45;&gt;repo&#45;release:ALBS release 7396</title>
<path fill="none" stroke="#546e7a" d="M1941.39,-80.51C1953.73,-77.72 1966.27,-74.82 1978.14,-72 2025.64,-60.7 2036.69,-54.24 2084.64,-45 2118.01,-38.57 2154.77,-33.16 2187.7,-28.92"/>
<polygon fill="#546e7a" stroke="#546e7a" points="2187.85,-31.38 2194.49,-28.06 2187.24,-26.51 2187.85,-31.38"/>
<text xml:space="preserve" text-anchor="middle" x="2031.39" y="-68.72" font-family="Inter" font-size="9.00">released_to</text>
</g>
<!-- cas:source:nginx:911945c71710c83cf6f760447c32d8d6cae737dc&#45;&gt;build:albs&#45;task:188077 -->
<g id="edge5" class="edge">
<title>cas:source:nginx:911945c71710c83cf6f760447c32d8d6cae737dc&#45;&gt;build:albs&#45;task:188077</title>
<path fill="none" stroke="#546e7a" d="M1178.93,-100.69C1261.58,-101.4 1367.01,-101.88 1460.85,-101 1463.91,-100.97 1467.03,-100.94 1470.17,-100.9"/>
<polygon fill="#546e7a" stroke="#546e7a" points="1470.06,-103.35 1477.03,-100.81 1470,-98.45 1470.06,-103.35"/>
<text xml:space="preserve" text-anchor="middle" x="1317.84" y="-102.67" font-family="Inter" font-size="9.00">built_by</text>
</g>
<!-- cas:source:nginx:911945c71710c83cf6f760447c32d8d6cae737dc&#45;&gt;build:albs:17812 -->
<g id="edge4" class="edge">
<title>cas:source:nginx:911945c71710c83cf6f760447c32d8d6cae737dc&#45;&gt;build:albs:17812</title>
<path fill="none" stroke="#546e7a" d="M1178.94,-85.14C1199.32,-83.2 1219.59,-81.27 1238.08,-79.51"/>
<polygon fill="#546e7a" stroke="#546e7a" points="1238.2,-81.96 1244.93,-78.85 1237.73,-77.08 1238.2,-81.96"/>
<text xml:space="preserve" text-anchor="middle" x="1212.71" y="-84.28" font-family="Inter" font-size="9.00">built_by</text>
</g>
</g>
</svg>
