<?xml version="1.0" encoding="UTF-8" standalone="no"?>
<!DOCTYPE svg PUBLIC "-//W3C//DTD SVG 1.1//EN"
 "http://www.w3.org/Graphics/SVG/1.1/DTD/svg11.dtd">
<!-- Generated by graphviz version 14.1.5 (20260411.2331)
 -->
<!-- Title: albs_provenance Pages: 1 -->
<svg width="2499pt" height="206pt"
 viewBox="0.00 0.00 2499.00 206.00" xmlns="http://www.w3.org/2000/svg" xmlns:xlink="http://www.w3.org/1999/xlink">
<g id="graph0" class="graph" transform="scale(1 1) rotate(0) translate(4 202)">
<title>albs_provenance</title>
<polygon fill="white" stroke="none" points="-4,4 -4,-202 2495.41,-202 2495.41,4 -4,4"/>
<!-- build:albs&#45;task:188077 -->
<g id="node1" class="node">
<title>build:albs&#45;task:188077</title>
<path fill="#f3e5f5" stroke="black" d="M1647.12,-117C1647.12,-117 1490.85,-117 1490.85,-117 1484.85,-117 1478.85,-111 1478.85,-105 1478.85,-105 1478.85,-93 1478.85,-93 1478.85,-87 1484.85,-81 1490.85,-81 1490.85,-81 1647.12,-81 1647.12,-81 1653.12,-81 1659.12,-87 1659.12,-93 1659.12,-93 1659.12,-105 1659.12,-105 1659.12,-111 1653.12,-117 1647.12,-117"/>
<text xml:space="preserve" text-anchor="middle" x="1568.99" y="-95.12" font-family="Inter" font-size="10.00">build_task\nALBS task 188077 x86_64</text>
</g>
<!-- buildenv:AlmaLinux&#45;9:x86_64 -->
<g id="node3" class="node">
<title>buildenv:AlmaLinux&#45;9:x86_64</title>
<path fill="#f5f5f5" stroke="black" d="M1937.27,-171C1937.27,-171 1774.25,-171 1774.25,-171 1768.25,-171 1762.25,-165 1762.25,-159 1762.25,-159 1762.25,-147 1762.25,-147 1762.25,-141 1768.25,-135 1774.25,-135 1774.25,-135 1937.27,-135 1937.27,-135 1943.27,-135 1949.27,-141 1949.27,-147 1949.27,-147 1949.27,-159 1949.27,-159 1949.27,-165 1943.27,-171 1937.27,-171"/>
<text xml:space="preserve" text-anchor="middle" x="1855.76" y="-149.12" font-family="Inter" font-size="10.00">build_environment\nAlmaLinux&#45;9 x86_64</text>
</g>
<!-- build:albs&#45;task:188077&#45;&gt;buildenv:AlmaLinux&#45;9:x86_64 -->
<g id="edge7" class="edge">
<title>build:albs&#45;task:188077&#45;&gt;buildenv:AlmaLinux&#45;9:x86_64</title>
<path fill="none" stroke="#546e7a" d="M1659.31,-115.94C1689.25,-121.62 1722.85,-127.99 1753.64,-133.83"/>
<polygon fill="#546e7a" stroke="#546e7a" points="1753,-136.2 1760.33,-135.09 1753.91,-131.38 1753,-136.2"/>
<text xml:space="preserve" text-anchor="middle" x="1696.25" y="-127.2" font-family="Inter" font-size="9.00">built_in</text>
</g>
<!-- rpm:3237140:nginx&#45;core&#45;1.20.1&#45;16.el9_4.1.x86_64.rpm -->
<g id="node10" class="node">
<title>rpm:3237140:nginx&#45;core&#45;1.20.1&#45;16.el9_4.1.x86_64.rpm</title>
<path fill="#e0f7fa" stroke="black" d="M1966.14,-117C1966.14,-117 1745.37,-117 1745.37,-117 1739.37,-117 1733.37,-111 1733.37,-105 1733.37,-105 1733.37,-93 1733.37,-93 1733.37,-87 1739.37,-81 1745.37,-81 1745.37,-81 1966.14,-81 1966.14,-81 1972.14,-81 1978.14,-87 1978.14,-93 1978.14,-93 1978.14,-105 1978.14,-105 1978.14,-111 1972.14,-117 1966.14,-117"/>
<text xml:space="preserve" text-anchor="middle" x="1855.76" y="-95.12" font-family="Inter" font-size="10.00">binary_rpm\nnginx&#45;core&#45;1.20.1&#45;16.el9_4.1.x86_64.rpm</text>
</g>
<!-- build:albs&#45;task:188077&#45;&gt;rpm:3237140:nginx&#45;core&#45;1.20.1&#45;16.el9_4.1.x86_64.rpm -->
<g id="edge10" class="edge">
<title>build:albs&#45;task:188077&#45;&gt;rpm:3237140:nginx&#45;core&#45;1.20.1&#45;16.el9_4.1.x86_64.rpm</title>
<path fill="none" stroke="#546e7a" d="M1659.31,-99C1679.99,-99 1702.42,-99 1724.45,-99"/>
<polygon fill="#546e7a" stroke="#546e7a" points="1724.36,-101.45 1731.36,-99 1724.36,-96.55 1724.36,-101.45"/>
<text xml:space="preserve" text-anchor="middle" x="1696.25" y="-100.2" font-family="Inter" font-size="9.00">produces</text>
</g>
<!-- srpm:3237035:nginx&#45;1.20.1&#45;16.el9_4.1.src.rpm -->
<g id="node13" class="node">
<title>srpm:3237035:nginx&#45;1.20.1&#45;16.el9_4.1.src.rpm</title>
<path fill="#e0f7fa" stroke="black" d="M1933.14,-50C1933.14,-50 1778.37,-50 1778.37,-50 1772.37,-50 1766.37,-44 1766.37,-38 1766.37,-38 1766.37,-26 1766.37,-26 1766.37,-20 1772.37,-14 1778.37,-14 1778.37,-14 1933.14,-14 1933.14,-14 1939.14,-14 1945.14,-20 1945.14,-26 1945.14,-26 1945.14,-38 1945.14,-38 1945.14,-44 1939.14,-50 1933.14,-50"/>
<text xml:space="preserve" text-anchor="middle" x="1855.76" y="-28.12" font-family="Inter" font-size="10.00">srpm\nnginx&#45;1.20.1&#45;16.el9_4.1.src.rpm</text>
</g>
<!-- build:albs&#45;task:188077&#45;&gt;srpm:3237035:nginx&#45;1.20.1&#45;16.el9_4.1.src.rpm -->
<g id="edge8" class="edge">
<title>build:albs&#45;task:188077&#45;&gt;srpm:3237035:nginx&#45;1.20.1&#45;16.el9_4.1.src.rpm</title>
<path fill="none" stroke="#546e7a" d="M1648.55,-80.51C1685.75,-71.76 1730.27,-61.29 1768.41,-52.32"/>
<polygon fill="#546e7a" stroke="#546e7a" points="1768.72,-54.76 1774.97,-50.77 1767.59,-49.99 1768.72,-54.76"/>
<text xml:space="preserve" text-anchor="middle" x="1696.25" y="-74.67" font-family="Inter" font-size="9.00">produces</text>
</g>
<!-- build:albs:17812 -->
<g id="node2" class="node">
<title>build:albs:17812</title>
<path fill="#f3e5f5" stroke="black" d="M1376.85,-90C1376.85,-90 1258.83,-90 1258.83,-90 1252.83,-90 1246.83,-84 1246.83,-78 1246.83,-78 1246.83,-66 1246.83,-66 1246.83,-60 1252.83,-54 1258.83,-54 1258.83,-54 1376.85,-54 1376.85,-54 1382.85,-54 1388.85,-60 1388.85,-66 1388.85,-66 1388.85,-78 1388.85,-78 1388.85,-84 1382.85,-90 1376.85,-90"/>
<text xml:space="preserve" text-anchor="middle" x="1317.84" y="-68.12" font-family="Inter" font-size="10.00">build_task\nALBS build 17812</text>
</g>
<!-- build:albs:17812&#45;&gt;build:albs&#45;task:188077 -->
<g id="edge6" class="edge">
<title>build:albs:17812&#45;&gt;build:albs&#45;task:188077</title>
<path fill="none" stroke="#546e7a" d="M1389.24,-79.63C1414.4,-82.36 1443.24,-85.48 1470.29,-88.41"/>
<polygon fill="#546e7a" stroke="#546e7a" points="1469.9,-90.83 1477.12,-89.15 1470.43,-85.96 1469.9,-90.83"/>
<text xml:space="preserve" text-anchor="middle" x="1433.85" y="-88.32" font-family="Inter" font-size="9.00">derived_from</text>
</g>
<!-- cas:artifact:e81b769bd3647a3310fff0d364f19980d1fe39f01a444feffdfed9430a68f4c3 -->
<g id="node4" class="node">
<title>cas:artifact:e81b769bd3647a3310fff0d364f19980d1fe39f01a444feffdfed9430a68f4c3</title>
<path fill="#fff8e1" stroke="black" d="M2474.54,-198C2474.54,-198 2101.52,-198 2101.52,-198 2095.52,-198 2089.52,-192 2089.52,-186 2089.52,-186 2089.52,-174 2089.52,-174 2089.52,-168 2095.52,-162 2101.52,-162 2101.52,-162 2474.54,-162 2474.54,-162 2480.54,-162 2486.54,-168 2486.54,-174 2486.54,-174 2486.54,-186 2486.54,-186 2486.54,-192 2480.54,-198 2474.54,-198"/>
<text xml:space="preserve" text-anchor="middle" x="2288.03" y="-176.12" font-family="Inter" font-size="10.00">cas_attestation\ne81b769bd3647a3310fff0d364f19980d1fe39f01a444feffdfed9430a68f4c3</text>
</g>
<!-- cas:artifact:f8e2a823ffc9fe9311dac3e3a50c349c3a0689b951656fefa955cd4405ddf510 -->
<g id="node5" class="node">
<title>cas:artifact:f8e2a823ffc9fe9311dac3e3a50c349c3a0689b951656fefa955cd4405ddf510</title>
<path fill="#fff8e1" stroke="black" d="M2479.41,-36C2479.41,-36 2096.64,-36 2096.64,-36 2090.64,-36 2084.64,-30 2084.64,-24 2084.64,-24 2084.64,-12 2084.64,-12 2084.64,-6 2090.64,0 2096.64,0 2096.64,0 2479.41,0 2479.41,0 2485.41,0 2491.41,-6 2491.41,-12 2491.41,-12 2491.41,-24 2491.41,-24 2491.41,-30 2485.41,-36 2479.41,-36"/>
<text xml:space="preserve" text-anchor="middle" x="2288.03" y="-14.12" font-family="Inter" font-size="10.00">cas_attestation\nf8e2a823ffc9fe9311dac3e3a50c349c3a0689b951656fefa955cd4405ddf510</text>
</g>
<!-- cas:source:nginx:911945c71710c83cf6f760447c32d8d6cae737dc -->
<g id="node6" class="node">
<title>cas:source:nginx:911945c71710c83cf6f760447c32d8d6cae737dc</title>
<path fill="#fff8e1" stroke="black" d="M1166.58,-117C1166.58,-117 898.56,-117 898.56,-117 892.56,-117 886.56,-111 886.56,-105 886.56,-105 886.56,-93 886.56,-93 886.56,-87 892.56,-81 898.56,-81 898.56,-81 1166.58,-81 1166.58,-81 1172.58,-81 1178.58,-87 1178.58,-93 1178.58,-93 1178.58,-105 1178.58,-105 1178.58,-111 1172.58,-117 1166.58,-117"/>
<text xml:space="preserve" text-anchor="middle" x="1032.57" y="-95.12" font-family="Inter" font-size="10.00">cas_attestation\n911945c71710c83cf6f760447c32d8d6cae737dc</text>
</g>
<!-- cas:source:nginx:911945c71710c83cf6f760447c32d8d6cae737dc&#45;&gt;build:albs&#45;task:188077 -->
<g id="edge5" class="edge">
<title>cas:source:nginx:911945c71710c83cf6f760447c32d8d6cae737dc&#45;&gt;build:albs&#45;task:188077</title>
<path fill="none" stroke="#546e7a" d="M1178.93,-100.69C1261.58,-101.4 1367.01,-101.88 1460.85,-101 1463.91,-100.97 1467.03,-100.94 1470.17,-100.9"/>
<polygon fill="#546e7a" stroke="#546e7a" points="1470.06,-103.35 1477.03,-100.81 1470,-98.45 1470.06,-103.35"/>
<text xml:space="preserve" text-anchor="middle" x="1317.84" y="-102.67" font-family="Inter" font-size="9.00">built_by</text>
</g>
<!-- cas:source:nginx:911945c71710c83cf6f760447c32d8d6cae737dc&#45;&gt;build:albs:17812 -->
<g id="edge4" class="edge">
<title>cas:source:nginx:911945c71710c83cf6f760447c32d8d6cae737dc&#45;&gt;build:albs:17812</title>
<path fill="none" stroke="#546e7a" d="M1178.94,-85.14C1199.32,-83.2 1219.59,-81.27 1238.08,-79.51"/>
<polygon fill="#546e7a" stroke="#546e7a" points="1238.2,-81.96 1244.93,-78.85 1237.73,-77.08 1238.2,-81.96"/>
<text xml:space="preserve" text-anchor="middle" x="1212.71" y="-84.28" font-family="Inter" font-size="9.00">built_by</text>
</g>
<!-- commit:nginx:911945c71710c83cf6f760447c32d8d6cae737dc -->
<g id="node7" class="node">
<title>commit:nginx:911945c71710c83cf6f760447c32d8d6cae737dc</title>
<path fill="#e3f2fd" stroke="black" d="M768.06,-117C768.06,-117 518.79,-117 518.79,-117 512.79,-117 506.79,-111 506.79,-105 506.79,-105 506.79,-93 506.79,-93 506.79,-87 512.79,-81 518.79,-81 518.79,-81 768.06,-81 768.06,-81 774.06,-81 780.06,-87 780.06,-93 780.06,-93 780.06,-105 780.06,-105 780.06,-111 774.06,-117 768.06,-117"/>
<text xml:space="preserve" text-anchor="middle" x="643.43" y="-95.12" font-family="Inter" font-size="10.00">git_commit\n911945c71710c83cf6f760447c32d8d6cae737dc</text>
</g>
<!-- commit:nginx:911945c71710c83cf6f760447c32d8d6cae737dc&#45;&gt;cas:source:nginx:911945c71710c83cf6f760447c32d8d6cae737dc -->
<g id="edge3" class="edge">
<title>commit:nginx:911945c71710c83cf6f760447c32d8d6cae737dc&#45;&gt;cas:source:nginx:911945c71710c83cf6f760447c32d8d6cae737dc</title>
<path fill="none" stroke="#546e7a" d="M780.37,-99C811.91,-99 845.69,-99 877.92,-99"/>
<polygon fill="#546e7a" stroke="#546e7a" points="877.57,-101.45 884.57,-99 877.57,-96.55 877.57,-101.45"/>
<text xml:space="preserve" text-anchor="middle" x="833.31" y="-100.2" font-family="Inter" font-size="9.00">authenticated_by</text>
</g>
<!-- git:https://git.almalinux.org/rpms/nginx.git -->
<g id="node8" class="node">
<title>git:https://git.almalinux.org/rpms/nginx.git</title>
<path fill="#e3f2fd" stroke="black" d="M421.29,-117C421.29,-117 200.52,-117 200.52,-117 194.52,-117 188.52,-111 188.52,-105 188.52,-105 188.52,-93 188.52,-93 188.52,-87 194.52,-81 200.52,-81 200.52,-81 421.29,-81 421.29,-81 427.29,-81 433.29,-87 433.29,-93 433.29,-93 433.29,-105 433.29,-105 433.29,-111 427.29,-117 421.29,-117"/>
<text xml:space="preserve" text-anchor="middle" x="310.91" y="-95.12" font-family="Inter" font-size="10.00">git_repository\nhttps://git.almalinux.org/rpms/nginx.git</text>
</g>
<!-- git:https://git.almalinux.org/rpms/nginx.git&#45;&gt;commit:nginx:911945c71710c83cf6f760447c32d8d6cae737dc -->
<g id="edge2" class="edge">
<title>git:https://git.almalinux.org/rpms/nginx.git&#45;&gt;commit:nginx:911945c71710c83cf6f760447c32d8d6cae737dc</title>
<path fill="none" stroke="#546e7a" d="M433.57,-99C454.63,-99 476.7,-99 498.28,-99"/>
<polygon fill="#546e7a" stroke="#546e7a" points="498.01,-101.45 505.01,-99 498.01,-96.55 498.01,-101.45"/>
<text xml:space="preserve" text-anchor="middle" x="470.04" y="-100.2" font-family="Inter" font-size="9.00">points_to</text>
</g>
<!-- repo&#45;release:ALBS release 7396 -->
<g id="node9" class="node">
<title>repo&#45;release:ALBS release 7396</title>
<path fill="#e8eaf6" stroke="black" d="M2367.66,-144C2367.66,-144 2208.39,-144 2208.39,-144 2202.39,-144 2196.39,-138 2196.39,-132 2196.39,-132 2196.39,-120 2196.39,-120 2196.39,-114 2202.39,-108 2208.39,-108 2208.39,-108 2367.66,-108 2367.66,-108 2373.66,-108 2379.66,-114 2379.66,-120 2379.66,-120 2379.66,-132 2379.66,-132 2379.66,-138 2373.66,-144 2367.66,-144"/>
<text xml:space="preserve" text-anchor="middle" x="2288.03" y="-122.12" font-family="Inter" font-size="10.00">repository_release\nALBS release 7396</text>
</g>
<!-- rpm:3237140:nginx&#45;core&#45;1.20.1&#45;16.el9_4.1.x86_64.rpm&#45;&gt;cas:artifact:e81b769bd3647a3310fff0d364f19980d1fe39f01a444feffdfed9430a68f4c3 -->
<g id="edge11" class="edge">
<title>rpm:3237140:nginx&#45;core&#45;1.20.1&#45;16.el9_4.1.x86_64.rpm&#45;&gt;cas:artifact:e81b769bd3647a3310fff0d364f19980d1fe39f01a444feffdfed9430a68f4c3</title>
<path fill="none" stroke="#546e7a" d="M1941.39,-117.49C1953.73,-120.28 1966.27,-123.18 1978.14,-126 2025.64,-137.3 2036.69,-143.76 2084.64,-153 2098.02,-155.58 2111.95,-157.99 2125.96,-160.23"/>
<polygon fill="#546e7a" stroke="#546e7a" points="2125.43,-162.63 2132.72,-161.3 2126.19,-157.79 2125.43,-162.63"/>
<text xml:space="preserve" text-anchor="middle" x="2031.39" y="-150.46" font-family="Inter" font-size="9.00">authenticated_by</text>
</g>
<!-- rpm:3237140:nginx&#45;core&#45;1.20.1&#45;16.el9_4.1.x86_64.rpm&#45;&gt;repo&#45;release:ALBS release 7396 -->
<g id="edge12" class="edge">
<title>rpm:3237140:nginx&#45;core&#45;1.20.1&#45;16.el9_4.1.x86_64.rpm&#45;&gt;repo&#45;release:ALBS release 7396</title>
<path fill="none" stroke="#546e7a" d="M1978.61,-106.65C2044.72,-110.8 2125.41,-115.86 2187.66,-119.76"/>
<polygon fill="#546e7a" stroke="#546e7a" points="2187.28,-122.2 2194.42,-120.19 2187.59,-117.31 2187.28,-122.2"/>
<text xml:space="preserve" text-anchor="middle" x="2031.39" y="-112.89" font-family="Inter" font-size="9.00">released_to</text>
</g>
<!-- sig:albs:11754 -->
<g id="node11" class="node">
<title>sig:albs:11754</title>
<path fill="#fff3e0" stroke="black" d="M2354.54,-90C2354.54,-90 2221.52,-90 2221.52,-90 2215.52,-90 2209.52,-84 2209.52,-78 2209.52,-78 2209.52,-66 2209.52,-66 2209.52,-60 2215.52,-54 2221.52,-54 2221.52,-54 2354.54,-54 2354.54,-54 2360.54,-54 2366.54,-60 2366.54,-66 2366.54,-66 2366.54,-78 2366.54,-78 2366.54,-84 2360.54,-90 2354.54,-90"/>
<text xml:space="preserve" text-anchor="middle" x="2288.03" y="-68.12" font-family="Inter" font-size="10.00">signature\nALBS sign task 11754</text>
</g>
<!-- rpm:3237140:nginx&#45;core&#45;1.20.1&#45;16.el9_4.1.x86_64.rpm&#45;&gt;sig:albs:11754 -->
<g id="edge13" class="edge">
<title>rpm:3237140:nginx&#45;core&#45;1.20.1&#45;16.el9_4.1.x86_64.rpm&#45;&gt;sig:albs:11754</title>
<path fill="none" stroke="#546e7a" d="M1978.61,-91.35C2049.48,-86.91 2137.09,-81.41 2200.8,-77.41"/>
<polygon fill="#546e7a" stroke="#546e7a" points="2200.89,-79.86 2207.73,-76.98 2200.59,-74.97 2200.89,-79.86"/>
<text xml:space="preserve" text-anchor="middle" x="2031.39" y="-90.7" font-family="Inter" font-size="9.00">signed_as</text>
</g>
<!-- src:nginx -->
<g id="node12" class="node">
<title>src:nginx</title>
<path fill="#e8f5e9" stroke="black" d="M102.27,-117C102.27,-117 12,-117 12,-117 6,-117 0,-111 0,-105 0,-105 0,-93 0,-93 0,-87 6,-81 12,-81 12,-81 102.27,-81 102.27,-81 108.27,-81 114.27,-87 114.27,-93 114.27,-93 114.27,-105 114.27,-105 114.27,-111 108.27,-117 102.27,-117"/>
<text xml:space="preserve" text-anchor="middle" x="57.14" y="-95.12" font-family="Inter" font-size="10.00">source_package\nnginx</text>
</g>
<!-- src:nginx&#45;&gt;git:https://git.almalinux.org/rpms/nginx.git -->
<g id="edge1" class="edge">
<title>src:nginx&#45;&gt;git:https://git.almalinux.org/rpms/nginx.git</title>
<path fill="none" stroke="#546e7a" d="M114.64,-99C134.13,-99 156.86,-99 179.78,-99"/>
<polygon fill="#546e7a" stroke="#546e7a" points="179.71,-101.45 186.71,-99 179.71,-96.55 179.71,-101.45"/>
<text xml:space="preserve" text-anchor="middle" x="151.4" y="-100.2" font-family="Inter" font-size="9.00">stored_in</text>
</g>
<!-- srpm:3237035:nginx&#45;1.20.1&#45;16.el9_4.1.src.rpm&#45;&gt;cas:artifact:f8e2a823ffc9fe9311dac3e3a50c349c3a0689b951656fefa955cd4405ddf510 -->
<g id="edge9" class="edge">
<title>srpm:3237035:nginx&#45;1.20.1&#45;16.el9_4.1.src.rpm&#45;&gt;cas:artifact:f8e2a823ffc9fe9311dac3e3a50c349c3a0689b951656fefa955cd4405ddf510</title>
<path fill="none" stroke="#546e7a" d="M1945.39,-29.12C1983.56,-27.87 2029.98,-26.36 2076.14,-24.86"/>
<polygon fill="#546e7a" stroke="#546e7a" points="2076.02,-27.32 2082.94,-24.64 2075.86,-22.42 2076.02,-27.32"/>
<text xml:space="preserve" text-anchor="middle" x="2031.39" y="-28.27" font-family="Inter" font-size="9.00">authenticated_by</text>
</g>
</g>
</svg>
