<?xml version="1.0" encoding="UTF-8" standalone="no"?>
<!DOCTYPE svg PUBLIC "-//W3C//DTD SVG 1.1//EN"
 "http://www.w3.org/Graphics/SVG/1.1/DTD/svg11.dtd">
<!-- Generated by graphviz version 9.0.0 (20230911.1827)
 -->
<!-- Title: albs_provenance Pages: 1 -->
<svg width="2656pt" height="206pt"
 viewBox="0.00 0.00 2656.16 206.00" xmlns="http://www.w3.org/2000/svg" xmlns:xlink="http://www.w3.org/1999/xlink">
<g id="graph0" class="graph" transform="scale(1 1) rotate(0) translate(4 202)">
<title>albs_provenance</title>
<polygon fill="white" stroke="none" points="-4,4 -4,-202 2652.16,-202 2652.16,4 -4,4"/>
<!-- build:albs&#45;task:188077 -->
<g id="node1" class="node">
<title>build:albs&#45;task:188077</title>
<path fill="#f3e5f5" stroke="black" d="M1740.12,-117C1740.12,-117 1577.85,-117 1577.85,-117 1571.85,-117 1565.85,-111 1565.85,-105 1565.85,-105 1565.85,-93 1565.85,-93 1565.85,-87 1571.85,-81 1577.85,-81 1577.85,-81 1740.12,-81 1740.12,-81 1746.12,-81 1752.12,-87 1752.12,-93 1752.12,-93 1752.12,-105 1752.12,-105 1752.12,-111 1746.12,-117 1740.12,-117"/>
<text text-anchor="middle" x="1658.99" y="-96.62" font-family="Inter" font-size="10.00">build_task\nALBS task 188077 x86_64</text>
</g>
<!-- buildenv:AlmaLinux&#45;9:x86_64 -->
<g id="node3" class="node">
<title>buildenv:AlmaLinux&#45;9:x86_64</title>
<path fill="#f5f5f5" stroke="black" d="M2049.39,-171C2049.39,-171 1872.12,-171 1872.12,-171 1866.12,-171 1860.12,-165 1860.12,-159 1860.12,-159 1860.12,-147 1860.12,-147 1860.12,-141 1866.12,-135 1872.12,-135 1872.12,-135 2049.39,-135 2049.39,-135 2055.39,-135 2061.39,-141 2061.39,-147 2061.39,-147 2061.39,-159 2061.39,-159 2061.39,-165 2055.39,-171 2049.39,-171"/>
<text text-anchor="middle" x="1960.76" y="-150.62" font-family="Inter" font-size="10.00">build_environment\nAlmaLinux&#45;9 x86_64</text>
</g>
<!-- build:albs&#45;task:188077&#45;&gt;buildenv:AlmaLinux&#45;9:x86_64 -->
<g id="edge7" class="edge">
<title>build:albs&#45;task:188077&#45;&gt;buildenv:AlmaLinux&#45;9:x86_64</title>
<path fill="none" stroke="#546e7a" d="M1752.37,-115.64C1783.77,-121.3 1819.14,-127.67 1851.66,-133.53"/>
<polygon fill="#546e7a" stroke="#546e7a" points="1851.05,-135.91 1858.37,-134.74 1851.92,-131.08 1851.05,-135.91"/>
<text text-anchor="middle" x="1789.62" y="-129.2" font-family="Inter" font-size="9.00">built_in</text>
</g>
<!-- rpm:3237140:nginx&#45;core&#45;1.20.1&#45;16.el9_4.1.x86_64.rpm -->
<g id="node10" class="node">
<title>rpm:3237140:nginx&#45;core&#45;1.20.1&#45;16.el9_4.1.x86_64.rpm</title>
<path fill="#e0f7fa" stroke="black" d="M2082.39,-117C2082.39,-117 1839.12,-117 1839.12,-117 1833.12,-117 1827.12,-111 1827.12,-105 1827.12,-105 1827.12,-93 1827.12,-93 1827.12,-87 1833.12,-81 1839.12,-81 1839.12,-81 2082.39,-81 2082.39,-81 2088.39,-81 2094.39,-87 2094.39,-93 2094.39,-93 2094.39,-105 2094.39,-105 2094.39,-111 2088.39,-117 2082.39,-117"/>
<text text-anchor="middle" x="1960.76" y="-96.62" font-family="Inter" font-size="10.00">binary_rpm\nnginx&#45;core&#45;1.20.1&#45;16.el9_4.1.x86_64.rpm</text>
</g>
<!-- build:albs&#45;task:188077&#45;&gt;rpm:3237140:nginx&#45;core&#45;1.20.1&#45;16.el9_4.1.x86_64.rpm -->
<g id="edge10" class="edge">
<title>build:albs&#45;task:188077&#45;&gt;rpm:3237140:nginx&#45;core&#45;1.20.1&#45;16.el9_4.1.x86_64.rpm</title>
<path fill="none" stroke="#546e7a" d="M1752.37,-99C1773.29,-99 1795.96,-99 1818.38,-99"/>
<polygon fill="#546e7a" stroke="#546e7a" points="1818.11,-101.45 1825.11,-99 1818.11,-96.55 1818.11,-101.45"/>
<text text-anchor="middle" x="1789.62" y="-103.2" font-family="Inter" font-size="9.00">produces</text>
</g>
<!-- srpm:3237035:nginx&#45;1.20.1&#45;16.el9_4.1.src.rpm -->
<g id="node13" class="node">
<title>srpm:3237035:nginx&#45;1.20.1&#45;16.el9_4.1.src.rpm</title>
<path fill="#e0f7fa" stroke="black" d="M2045.64,-50C2045.64,-50 1875.87,-50 1875.87,-50 1869.87,-50 1863.87,-44 1863.87,-38 1863.87,-38 1863.87,-26 1863.87,-26 1863.87,-20 1869.87,-14 1875.87,-14 1875.87,-14 2045.64,-14 2045.64,-14 2051.64,-14 2057.64,-20 2057.64,-26 2057.64,-26 2057.64,-38 2057.64,-38 2057.64,-44 2051.64,-50 2045.64,-50"/>
<text text-anchor="middle" x="1960.76" y="-29.62" font-family="Inter" font-size="10.00">srpm\nnginx&#45;1.20.1&#45;16.el9_4.1.src.rpm</text>
</g>
<!-- build:albs&#45;task:188077&#45;&gt;srpm:3237035:nginx&#45;1.20.1&#45;16.el9_4.1.src.rpm -->
<g id="edge8" class="edge">
<title>build:albs&#45;task:188077&#45;&gt;srpm:3237035:nginx&#45;1.20.1&#45;16.el9_4.1.src.rpm</title>
<path fill="none" stroke="#546e7a" d="M1742.69,-80.51C1781.85,-71.76 1828.71,-61.29 1868.86,-52.32"/>
<polygon fill="#546e7a" stroke="#546e7a" points="1869.28,-54.73 1875.58,-50.81 1868.22,-49.95 1869.28,-54.73"/>
<text text-anchor="middle" x="1789.62" y="-78.2" font-family="Inter" font-size="9.00">produces</text>
</g>
<!-- build:albs:17812 -->
<g id="node2" class="node">
<title>build:albs:17812</title>
<path fill="#f3e5f5" stroke="black" d="M1462.35,-90C1462.35,-90 1338.33,-90 1338.33,-90 1332.33,-90 1326.33,-84 1326.33,-78 1326.33,-78 1326.33,-66 1326.33,-66 1326.33,-60 1332.33,-54 1338.33,-54 1338.33,-54 1462.35,-54 1462.35,-54 1468.35,-54 1474.35,-60 1474.35,-66 1474.35,-66 1474.35,-78 1474.35,-78 1474.35,-84 1468.35,-90 1462.35,-90"/>
<text text-anchor="middle" x="1400.34" y="-69.62" font-family="Inter" font-size="10.00">build_task\nALBS build 17812</text>
</g>
<!-- build:albs:17812&#45;&gt;build:albs&#45;task:188077 -->
<g id="edge6" class="edge">
<title>build:albs:17812&#45;&gt;build:albs&#45;task:188077</title>
<path fill="none" stroke="#546e7a" d="M1474.54,-79.7C1500.3,-82.41 1529.71,-85.51 1557.33,-88.41"/>
<polygon fill="#546e7a" stroke="#546e7a" points="1556.73,-90.81 1563.94,-89.11 1557.24,-85.94 1556.73,-90.81"/>
<text text-anchor="middle" x="1520.1" y="-92.2" font-family="Inter" font-size="9.00">derived_from</text>
</g>
<!-- cas:artifact:e81b769bd3647a3310fff0d364f19980d1fe39f01a444feffdfed9430a68f4c3 -->
<g id="node4" class="node">
<title>cas:artifact:e81b769bd3647a3310fff0d364f19980d1fe39f01a444feffdfed9430a68f4c3</title>
<path fill="#fff8e1" stroke="black" d="M2635.04,-198C2635.04,-198 2214.77,-198 2214.77,-198 2208.77,-198 2202.77,-192 2202.77,-186 2202.77,-186 2202.77,-174 2202.77,-174 2202.77,-168 2208.77,-162 2214.77,-162 2214.77,-162 2635.04,-162 2635.04,-162 2641.04,-162 2647.04,-168 2647.04,-174 2647.04,-174 2647.04,-186 2647.04,-186 2647.04,-192 2641.04,-198 2635.04,-198"/>
<text text-anchor="middle" x="2424.9" y="-177.62" font-family="Inter" font-size="10.00">cas_attestation\ne81b769bd3647a3310fff0d364f19980d1fe39f01a444feffdfed9430a68f4c3</text>
</g>
<!-- cas:artifact:f8e2a823ffc9fe9311dac3e3a50c349c3a0689b951656fefa955cd4405ddf510 -->
<g id="node5" class="node">
<title>cas:artifact:f8e2a823ffc9fe9311dac3e3a50c349c3a0689b951656fefa955cd4405ddf510</title>
<path fill="#fff8e1" stroke="black" d="M2636.16,-36C2636.16,-36 2213.64,-36 2213.64,-36 2207.64,-36 2201.64,-30 2201.64,-24 2201.64,-24 2201.64,-12 2201.64,-12 2201.64,-6 2207.64,0 2213.64,0 2213.64,0 2636.16,0 2636.16,0 2642.16,0 2648.16,-6 2648.16,-12 2648.16,-12 2648.16,-24 2648.16,-24 2648.16,-30 2642.16,-36 2636.16,-36"/>
<text text-anchor="middle" x="2424.9" y="-15.62" font-family="Inter" font-size="10.00">cas_attestation\nf8e2a823ffc9fe9311dac3e3a50c349c3a0689b951656fefa955cd4405ddf510</text>
</g>
<!-- cas:source:nginx:911945c71710c83cf6f760447c32d8d6cae737dc -->
<g id="node6" class="node">
<title>cas:source:nginx:911945c71710c83cf6f760447c32d8d6cae737dc</title>
<path fill="#fff8e1" stroke="black" d="M1246.83,-117C1246.83,-117 954.81,-117 954.81,-117 948.81,-117 942.81,-111 942.81,-105 942.81,-105 942.81,-93 942.81,-93 942.81,-87 948.81,-81 954.81,-81 954.81,-81 1246.83,-81 1246.83,-81 1252.83,-81 1258.83,-87 1258.83,-93 1258.83,-93 1258.83,-105 1258.83,-105 1258.83,-111 1252.83,-117 1246.83,-117"/>
<text text-anchor="middle" x="1100.82" y="-96.62" font-family="Inter" font-size="10.00">cas_attestation\n911945c71710c83cf6f760447c32d8d6cae737dc</text>
</g>
<!-- cas:source:nginx:911945c71710c83cf6f760447c32d8d6cae737dc&#45;&gt;build:albs&#45;task:188077 -->
<g id="edge5" class="edge">
<title>cas:source:nginx:911945c71710c83cf6f760447c32d8d6cae737dc&#45;&gt;build:albs&#45;task:188077</title>
<path fill="none" stroke="#546e7a" d="M1259.24,-104.24C1344.64,-106.29 1452.05,-107.61 1547.85,-105 1550.9,-104.92 1554,-104.82 1557.13,-104.71"/>
<polygon fill="#546e7a" stroke="#546e7a" points="1557.04,-107.17 1563.95,-104.46 1556.86,-102.27 1557.04,-107.17"/>
<text text-anchor="middle" x="1400.34" y="-111.2" font-family="Inter" font-size="9.00">built_by</text>
</g>
<!-- cas:source:nginx:911945c71710c83cf6f760447c32d8d6cae737dc&#45;&gt;build:albs:17812 -->
<g id="edge4" class="edge">
<title>cas:source:nginx:911945c71710c83cf6f760447c32d8d6cae737dc&#45;&gt;build:albs:17812</title>
<path fill="none" stroke="#546e7a" d="M1259.29,-84.71C1279.48,-82.88 1299.45,-81.07 1317.71,-79.41"/>
<polygon fill="#546e7a" stroke="#546e7a" points="1317.72,-81.87 1324.47,-78.79 1317.28,-76.99 1317.72,-81.87"/>
<text text-anchor="middle" x="1292.58" y="-88.2" font-family="Inter" font-size="9.00">built_by</text>
</g>
<!-- commit:nginx:911945c71710c83cf6f760447c32d8d6cae737dc -->
<g id="node7" class="node">
<title>commit:nginx:911945c71710c83cf6f760447c32d8d6cae737dc</title>
<path fill="#e3f2fd" stroke="black" d="M823.56,-117C823.56,-117 549.54,-117 549.54,-117 543.54,-117 537.54,-111 537.54,-105 537.54,-105 537.54,-93 537.54,-93 537.54,-87 543.54,-81 549.54,-81 549.54,-81 823.56,-81 823.56,-81 829.56,-81 835.56,-87 835.56,-93 835.56,-93 835.56,-105 835.56,-105 835.56,-111 829.56,-117 823.56,-117"/>
<text text-anchor="middle" x="686.55" y="-96.62" font-family="Inter" font-size="10.00">git_commit\n911945c71710c83cf6f760447c32d8d6cae737dc</text>
</g>
<!-- commit:nginx:911945c71710c83cf6f760447c32d8d6cae737dc&#45;&gt;cas:source:nginx:911945c71710c83cf6f760447c32d8d6cae737dc -->
<g id="edge3" class="edge">
<title>commit:nginx:911945c71710c83cf6f760447c32d8d6cae737dc&#45;&gt;cas:source:nginx:911945c71710c83cf6f760447c32d8d6cae737dc</title>
<path fill="none" stroke="#546e7a" d="M835.81,-99C867.73,-99 901.67,-99 934.2,-99"/>
<polygon fill="#546e7a" stroke="#546e7a" points="933.93,-101.45 940.93,-99 933.93,-96.55 933.93,-101.45"/>
<text text-anchor="middle" x="889.19" y="-103.2" font-family="Inter" font-size="9.00">authenticated_by</text>
</g>
<!-- git:https://git.almalinux.org/rpms/nginx.git -->
<g id="node8" class="node">
<title>git:https://git.almalinux.org/rpms/nginx.git</title>
<path fill="#e3f2fd" stroke="black" d="M452.04,-117C452.04,-117 206.52,-117 206.52,-117 200.52,-117 194.52,-111 194.52,-105 194.52,-105 194.52,-93 194.52,-93 194.52,-87 200.52,-81 206.52,-81 206.52,-81 452.04,-81 452.04,-81 458.04,-81 464.04,-87 464.04,-93 464.04,-93 464.04,-105 464.04,-105 464.04,-111 458.04,-117 452.04,-117"/>
<text text-anchor="middle" x="329.28" y="-96.62" font-family="Inter" font-size="10.00">git_repository\nhttps://git.almalinux.org/rpms/nginx.git</text>
</g>
<!-- git:https://git.almalinux.org/rpms/nginx.git&#45;&gt;commit:nginx:911945c71710c83cf6f760447c32d8d6cae737dc -->
<g id="edge2" class="edge">
<title>git:https://git.almalinux.org/rpms/nginx.git&#45;&gt;commit:nginx:911945c71710c83cf6f760447c32d8d6cae737dc</title>
<path fill="none" stroke="#546e7a" d="M464.34,-99C485.43,-99 507.4,-99 528.95,-99"/>
<polygon fill="#546e7a" stroke="#546e7a" points="528.67,-101.45 535.67,-99 528.67,-96.55 528.67,-101.45"/>
<text text-anchor="middle" x="500.79" y="-103.2" font-family="Inter" font-size="9.00">points_to</text>
</g>
<!-- repo&#45;release:ALBS release 7396 -->
<g id="node9" class="node">
<title>repo&#45;release:ALBS release 7396</title>
<path fill="#e8eaf6" stroke="black" d="M2509.79,-144C2509.79,-144 2340.02,-144 2340.02,-144 2334.02,-144 2328.02,-138 2328.02,-132 2328.02,-132 2328.02,-120 2328.02,-120 2328.02,-114 2334.02,-108 2340.02,-108 2340.02,-108 2509.79,-108 2509.79,-108 2515.79,-108 2521.79,-114 2521.79,-120 2521.79,-120 2521.79,-132 2521.79,-132 2521.79,-138 2515.79,-144 2509.79,-144"/>
<text text-anchor="middle" x="2424.9" y="-123.62" font-family="Inter" font-size="10.00">repository_release\nALBS release 7396</text>
</g>
<!-- rpm:3237140:nginx&#45;core&#45;1.20.1&#45;16.el9_4.1.x86_64.rpm&#45;&gt;cas:artifact:e81b769bd3647a3310fff0d364f19980d1fe39f01a444feffdfed9430a68f4c3 -->
<g id="edge11" class="edge">
<title>rpm:3237140:nginx&#45;core&#45;1.20.1&#45;16.el9_4.1.x86_64.rpm&#45;&gt;cas:artifact:e81b769bd3647a3310fff0d364f19980d1fe39f01a444feffdfed9430a68f4c3</title>
<path fill="none" stroke="#546e7a" d="M2055.35,-117.49C2068.48,-120.25 2081.79,-123.13 2094.39,-126 2142.32,-136.91 2153.31,-144.02 2201.64,-153 2215.75,-155.62 2230.41,-158.05 2245.17,-160.28"/>
<polygon fill="#546e7a" stroke="#546e7a" points="2244.59,-162.67 2251.88,-161.28 2245.31,-157.83 2244.59,-162.67"/>
<text text-anchor="middle" x="2148.02" y="-153.2" font-family="Inter" font-size="9.00">authenticated_by</text>
</g>
<!-- rpm:3237140:nginx&#45;core&#45;1.20.1&#45;16.el9_4.1.x86_64.rpm&#45;&gt;repo&#45;release:ALBS release 7396 -->
<g id="edge12" class="edge">
<title>rpm:3237140:nginx&#45;core&#45;1.20.1&#45;16.el9_4.1.x86_64.rpm&#45;&gt;repo&#45;release:ALBS release 7396</title>
<path fill="none" stroke="#546e7a" d="M2094.81,-106.77C2166.15,-110.94 2252.8,-116 2319.27,-119.89"/>
<polygon fill="#546e7a" stroke="#546e7a" points="2319.05,-122.33 2326.18,-120.29 2319.33,-117.44 2319.05,-122.33"/>
<text text-anchor="middle" x="2148.02" y="-116.2" font-family="Inter" font-size="9.00">released_to</text>
</g>
<!-- sig:albs:11754 -->
<g id="node11" class="node">
<title>sig:albs:11754</title>
<path fill="#fff3e0" stroke="black" d="M2494.41,-90C2494.41,-90 2355.39,-90 2355.39,-90 2349.39,-90 2343.39,-84 2343.39,-78 2343.39,-78 2343.39,-66 2343.39,-66 2343.39,-60 2349.39,-54 2355.39,-54 2355.39,-54 2494.41,-54 2494.41,-54 2500.41,-54 2506.41,-60 2506.41,-66 2506.41,-66 2506.41,-78 2506.41,-78 2506.41,-84 2500.41,-90 2494.41,-90"/>
<text text-anchor="middle" x="2424.9" y="-69.62" font-family="Inter" font-size="10.00">signature\nALBS sign task 11754</text>
</g>
<!-- rpm:3237140:nginx&#45;core&#45;1.20.1&#45;16.el9_4.1.x86_64.rpm&#45;&gt;sig:albs:11754 -->
<g id="edge13" class="edge">
<title>rpm:3237140:nginx&#45;core&#45;1.20.1&#45;16.el9_4.1.x86_64.rpm&#45;&gt;sig:albs:11754</title>
<path fill="none" stroke="#546e7a" d="M2094.81,-91.23C2171.93,-86.72 2266.95,-81.17 2335.02,-77.19"/>
<polygon fill="#546e7a" stroke="#546e7a" points="2334.83,-79.66 2341.68,-76.8 2334.54,-74.77 2334.83,-79.66"/>
<text text-anchor="middle" x="2148.02" y="-94.2" font-family="Inter" font-size="9.00">signed_as</text>
</g>
<!-- src:nginx -->
<g id="node12" class="node">
<title>src:nginx</title>
<path fill="#e8f5e9" stroke="black" d="M108.27,-117C108.27,-117 12,-117 12,-117 6,-117 0,-111 0,-105 0,-105 0,-93 0,-93 0,-87 6,-81 12,-81 12,-81 108.27,-81 108.27,-81 114.27,-81 120.27,-87 120.27,-93 120.27,-93 120.27,-105 120.27,-105 120.27,-111 114.27,-117 108.27,-117"/>
<text text-anchor="middle" x="60.14" y="-96.62" font-family="Inter" font-size="10.00">source_package\nnginx</text>
</g>
<!-- src:nginx&#45;&gt;git:https://git.almalinux.org/rpms/nginx.git -->
<g id="edge1" class="edge">
<title>src:nginx&#45;&gt;git:https://git.almalinux.org/rpms/nginx.git</title>
<path fill="none" stroke="#546e7a" d="M120.76,-99C140.27,-99 162.86,-99 185.81,-99"/>
<polygon fill="#546e7a" stroke="#546e7a" points="185.76,-101.45 192.76,-99 185.76,-96.55 185.76,-101.45"/>
<text text-anchor="middle" x="157.4" y="-103.2" font-family="Inter" font-size="9.00">stored_in</text>
</g>
<!-- srpm:3237035:nginx&#45;1.20.1&#45;16.el9_4.1.src.rpm&#45;&gt;cas:artifact:f8e2a823ffc9fe9311dac3e3a50c349c3a0689b951656fefa955cd4405ddf510 -->
<g id="edge9" class="edge">
<title>srpm:3237035:nginx&#45;1.20.1&#45;16.el9_4.1.src.rpm&#45;&gt;cas:artifact:f8e2a823ffc9fe9311dac3e3a50c349c3a0689b951656fefa955cd4405ddf510</title>
<path fill="none" stroke="#546e7a" d="M2058.07,-29.08C2097.71,-27.88 2145.48,-26.43 2193.22,-24.99"/>
<polygon fill="#546e7a" stroke="#546e7a" points="2193.07,-27.44 2199.99,-24.78 2192.92,-22.55 2193.07,-27.44"/>
<text text-anchor="middle" x="2148.02" y="-32.2" font-family="Inter" font-size="9.00">authenticated_by</text>
</g>
</g>
</svg>
