<?xml version="1.0" encoding="UTF-8" standalone="no"?>
<!DOCTYPE svg PUBLIC "-//W3C//DTD SVG 1.1//EN"
 "http://www.w3.org/Graphics/SVG/1.1/DTD/svg11.dtd">
<!-- Generated by graphviz version 9.0.0 (20230911.1827)
 -->
<!-- Title: albs_provenance Pages: 1 -->
<svg width="390pt" height="44pt"
 viewBox="0.00 0.00 389.54 44.00" xmlns="http://www.w3.org/2000/svg" xmlns:xlink="http://www.w3.org/1999/xlink">
<g id="graph0" class="graph" transform="scale(1 1) rotate(0) translate(4 40)">
<title>albs_provenance</title>
<polygon fill="white" stroke="none" points="-4,4 -4,-40 385.54,-40 385.54,4 -4,4"/>
<!-- pkg:nginx&#45;core -->
<g id="node1" class="node">
<title>pkg:nginx&#45;core</title>
<path fill="#e0f7fa" stroke="black" d="M111.27,-36C111.27,-36 12,-36 12,-36 6,-36 0,-30 0,-24 0,-24 0,-12 0,-12 0,-6 6,0 12,0 12,0 111.27,0 111.27,0 117.27,0 123.27,-6 123.27,-12 123.27,-12 123.27,-24 123.27,-24 123.27,-30 117.27,-36 111.27,-36"/>
<text text-anchor="middle" x="61.63" y="-15.62" font-family="Inter" font-size="10.00">binary_rpm\nnginx&#45;core</text>
</g>
<!-- pkg:nginx&#45;filesystem -->
<g id="node2" class="node">
<title>pkg:nginx&#45;filesystem</title>
<path fill="#e0f7fa" stroke="black" d="M369.54,-36C369.54,-36 243.27,-36 243.27,-36 237.27,-36 231.27,-30 231.27,-24 231.27,-24 231.27,-12 231.27,-12 231.27,-6 237.27,0 243.27,0 243.27,0 369.54,0 369.54,0 375.54,0 381.54,-6 381.54,-12 381.54,-12 381.54,-24 381.54,-24 381.54,-30 375.54,-36 369.54,-36"/>
<text text-anchor="middle" x="306.4" y="-15.62" font-family="Inter" font-size="10.00">binary_rpm\nnginx&#45;filesystem</text>
</g>
<!-- pkg:nginx&#45;core&#45;&gt;pkg:nginx&#45;filesystem -->
<g id="edge1" class="edge">
<title>pkg:nginx&#45;core&#45;&gt;pkg:nginx&#45;filesystem</title>
<path fill="none" stroke="#546e7a" d="M123.58,-18C153.62,-18 190.29,-18 222.81,-18"/>
<polygon fill="#546e7a" stroke="#546e7a" points="222.47,-20.45 229.47,-18 222.47,-15.55 222.47,-20.45"/>
<text text-anchor="middle" x="177.27" y="-22.2" font-family="Inter" font-size="9.00">requires_runtime</text>
</g>
</g>
</svg>
